# xmcd
#
# Track frame offsets:
#	183
#	22980
#	46343
#	63553
#	80228
#	101355
#	123315
#	143003
#	164970
#	186198
#	202943
#
# Disc length: 2948 seconds
#
# Revision: 0
# Processed by: cddbd v1.5.2PL0 Copyright (c) Steve Scherf et al.
# Submitted via: EasyCDDAExtractor 2010.4.0.0
#
DISCID=980b820b
DTITLE=장혜진 - 2 - Whiteism
DYEAR=1993
DGENRE=Ballad
TTITLE0=내슬픈 이야기
TTITLE1=키작은 하늘
TTITLE2=아프리카 여행
TTITLE3=잃어버린 꿈
TTITLE4=이별을 준비하며
TTITLE5=열정
TTITLE6=당신은 왜
TTITLE7=나 또한 아직
TTITLE8=늦가을 모퉁이
TTITLE9=어제와 다른 오늘
TTITLE10=그대는
EXTD=
EXTT0=
EXTT1=
EXTT2=
EXTT3=
EXTT4=
EXTT5=
EXTT6=
EXTT7=
EXTT8=
EXTT9=
EXTT10=
PLAYORDER=
